<svg width="31" height="49" viewBox="0 0 31 49" fill="none" xmlns="http://www.w3.org/2000/svg">
<path d="M16.6037 33.8338C16.4619 33.266 15.6489 33.2564 15.2945 33.2564H15.2378C14.8833 33.2564 14.0704 33.266 13.9286 33.8338C13.7868 34.4064 14.4957 34.8828 15.044 35.1908C15.1054 35.2293 15.1763 35.2437 15.2472 35.2437H15.285C15.3559 35.2437 15.4268 35.2293 15.4883 35.1908C16.0365 34.8828 16.7455 34.4064 16.6037 33.8338ZM2.22617 20.2976C2.02766 19.9463 1.92841 19.2437 2.27343 18.0167C2.27816 17.9926 2.28761 17.9685 2.29234 17.9445C2.3396 17.9348 2.38214 17.93 2.4294 17.9156C3.74805 17.6269 4.66023 17.9445 5.23684 18.315C4.14033 18.878 3.13835 19.5469 2.22617 20.2976ZM18.0783 39.9788C18.0783 39.9788 18.1255 39.9932 18.1444 40.0028C18.2342 40.0365 18.3193 40.0606 18.3949 40.0894C18.0688 40.5177 17.3032 41.1048 15.7907 41.047C15.4977 41.0326 15.1999 41.0326 14.9069 41.047C13.3945 41.1048 12.5248 40.537 12.0995 40.0894C12.142 40.0894 12.1751 40.075 12.2129 40.0702C12.2554 40.0606 12.298 40.0558 12.3452 40.0413C12.4445 40.0269 12.5532 40.0028 12.6619 39.9739C12.7895 39.9451 12.9124 39.9114 13.04 39.8777C13.144 39.8488 13.2432 39.82 13.3472 39.7863C13.9616 39.5938 14.5572 39.358 15.0298 39.1607C15.148 39.1126 15.2519 39.0645 15.3465 39.0212H15.3606C15.3606 39.0212 15.3843 39.0356 15.3985 39.0452H15.4221L15.4315 39.0549H15.4457C16.1547 39.3676 17.1566 39.767 18.0783 39.9788ZM22.0106 18.3631C20.7817 18.9406 19.5576 19.3736 18.3524 19.6527C18.0074 19.7249 17.6435 19.7971 17.2795 19.8597L19.2551 17.8915L16.495 17.4825L15.2519 14.9321L14.0136 17.4825L11.2487 17.8915L13.2527 19.8789L13.2432 19.9222C13.196 19.9126 13.1487 19.9078 13.1015 19.8982C13.0967 19.8982 13.0873 19.8933 13.0731 19.8933C12.643 19.8308 12.2082 19.749 11.797 19.6431C10.1428 19.2293 8.98009 18.5989 8.43184 18.2573V13.2961C8.6398 12.8437 9.50944 11.1403 11.1164 10.5773C12.2554 10.1827 13.5835 10.4329 15.0629 11.3135C16.0129 11.8765 16.8305 12.3962 17.5537 12.8582C19.3686 14.0082 20.7298 14.8696 22.0106 15.0476V18.3631ZM18.9243 27.8524C18.4469 28.0642 17.9885 28.3433 17.5584 28.6801C17.6954 28.9255 17.9365 29.0795 18.2059 29.0795C18.6313 29.0795 18.981 28.6801 18.981 28.1893C18.981 28.0642 18.9574 27.9631 18.9243 27.8524ZM18.9243 27.8524C18.4469 28.0642 17.9885 28.3433 17.5584 28.6801C17.6954 28.9255 17.9365 29.0795 18.2059 29.0795C18.6313 29.0795 18.981 28.6801 18.981 28.1893C18.981 28.0642 18.9574 27.9631 18.9243 27.8524ZM23.1402 27.1451C22.9511 26.7457 22.7668 26.3703 22.6061 26.0142C21.0322 22.6651 20.6683 21.8951 17.5537 21.6738C17.4922 21.669 17.426 21.669 17.3599 21.6594C16.9345 21.7219 16.4997 21.77 16.0649 21.7989C15.7198 21.8182 15.3748 21.8326 15.0392 21.8326C14.8218 21.8326 14.6092 21.8278 14.4012 21.8182L12.9455 21.6882C10.0152 21.9433 9.67486 22.6651 8.101 26.0142C7.93557 26.3703 7.7607 26.7457 7.56692 27.1451C6.89578 28.5454 7.57637 29.2576 9.41964 30.653C9.60397 30.783 9.77884 30.9225 9.95372 31.0621C10.7808 31.7069 10.9888 32.4672 11.0171 32.9821C11.0739 34.007 10.502 34.9117 10.1191 35.3929C9.9868 35.5565 9.90173 35.749 9.86392 35.9559C9.59924 37.4284 10.7147 38.0973 10.9652 38.2176C11.0597 38.2801 11.0786 38.2801 11.192 38.3138C11.3196 38.3282 11.2535 38.3379 11.4142 38.3475C11.4756 38.3475 11.5418 38.3475 11.6127 38.3427H11.641C12.0002 38.309 12.4445 38.1983 12.9124 38.0491C13.1629 37.9721 13.4276 37.8855 13.6828 37.7797C14.1318 37.6161 14.5619 37.4284 14.9447 37.2503H14.9494C15.1527 37.1541 15.3843 37.1445 15.5922 37.2215L15.9987 37.3658C15.9987 37.3658 16.0129 37.3706 16.0223 37.3706C16.0318 37.3755 16.0365 37.3803 16.046 37.3803C16.0743 37.3851 16.0932 37.3995 16.1121 37.4091C16.1121 37.4091 16.1216 37.4091 16.1216 37.4139C17.0479 37.8133 17.8656 38.1021 18.5178 38.2464C18.5226 38.2561 18.5367 38.2561 18.5509 38.2609C18.5651 38.2609 18.5698 38.2609 18.584 38.2705C19.2079 38.4052 19.4631 38.3523 19.5245 38.3379C19.5907 38.2753 19.7278 38.2176 19.8081 38.1839C20.0066 38.0876 20.7061 37.6545 20.8526 36.7114C20.933 36.1821 20.7581 35.6479 20.4462 35.2149C20.0775 34.7048 19.6332 33.8915 19.6852 32.9821C19.7136 32.4672 19.9263 31.7069 20.7487 31.0621C20.9283 30.9225 21.1079 30.783 21.2827 30.653C23.126 29.2576 23.8113 28.5454 23.1402 27.1451ZM10.3366 28.3336C10.3366 28.17 10.3555 28.0112 10.3933 27.8621H10.3649C9.91591 27.8621 9.55198 27.4915 9.55198 27.0392C9.55198 26.5869 9.91591 26.2067 10.3649 26.2067C10.8943 26.2067 11.4047 26.2741 11.901 26.4136C11.9388 26.4233 11.9766 26.4281 12.0097 26.4377C12.0191 26.4377 12.0333 26.4377 12.038 26.4521C12.1089 26.4714 12.1751 26.4954 12.2413 26.5147C12.8462 26.7168 13.4228 27.0296 13.9427 27.4338C14.0089 27.4867 14.0704 27.53 14.1176 27.5733C14.732 28.0882 15.0392 28.5646 15.0676 28.6127C15.3228 28.9929 15.2141 29.5078 14.836 29.758C14.7037 29.8446 14.5477 29.8879 14.4012 29.8879C14.2169 29.8879 14.042 29.8302 13.9002 29.7099C13.5268 30.1382 12.988 30.4076 12.3831 30.4076C11.2535 30.4076 10.3366 29.4789 10.3366 28.3336ZM15.6868 36.2927C15.5591 36.3601 15.4174 36.4034 15.2661 36.4034H15.1858C15.0393 36.4034 14.888 36.3601 14.7604 36.2927C13.6166 35.6431 12.1278 34.6518 12.4256 33.4536C12.7233 32.2651 14.4201 32.2458 15.1669 32.241H15.2897C16.0318 32.241 17.7238 32.2651 18.0216 33.4536C18.3193 34.6518 16.84 35.6431 15.6868 36.2927ZM20.2524 27.8621H20.2146C20.2524 28.0112 20.2713 28.17 20.2713 28.3336C20.2713 29.4789 19.3591 30.4076 18.2342 30.4076C17.6293 30.4076 17.081 30.1382 16.7076 29.7099C16.5659 29.8254 16.391 29.8879 16.2161 29.8879C16.0601 29.8879 15.9042 29.8446 15.7671 29.7484C15.3985 29.503 15.2945 28.9929 15.5402 28.6127C15.5686 28.5646 15.8711 28.1123 16.4524 27.6118C16.4666 27.5974 16.4855 27.5878 16.495 27.5733C16.5753 27.5012 16.6462 27.4482 16.7265 27.3809C17.2228 27.0152 17.7616 26.7216 18.3335 26.5291C18.4091 26.5003 18.4942 26.4762 18.5698 26.4521C18.5793 26.4425 18.5934 26.4377 18.5982 26.4377C18.636 26.4281 18.6691 26.4233 18.7116 26.4136C19.2079 26.2741 19.7183 26.2067 20.2524 26.2067C20.6967 26.2067 21.0606 26.5773 21.0606 27.0392C21.0606 27.5012 20.6967 27.8621 20.2524 27.8621ZM17.5584 28.6801C17.6954 28.9255 17.9365 29.0795 18.2059 29.0795C18.6313 29.0795 18.981 28.6801 18.981 28.1893C18.981 28.0642 18.9574 27.9631 18.9243 27.8524C18.4469 28.0642 17.9885 28.3433 17.5584 28.6801ZM11.6268 28.223C11.6268 28.6561 11.9719 29.0073 12.4161 29.0073C12.6808 29.0073 12.9219 28.8678 13.0589 28.6561C12.6241 28.3625 12.1562 28.1171 11.6883 27.9246C11.6505 28.0257 11.6268 28.1171 11.6268 28.223ZM28.2304 18.0167C28.5802 19.263 28.4668 19.9703 28.2541 20.312C27.4033 19.6046 26.4108 18.9261 25.2528 18.3198C25.8247 17.9493 26.7464 17.6269 28.0745 17.9156C28.1123 17.93 28.1595 17.9348 28.2068 17.9445C28.2163 17.9685 28.221 17.9926 28.2304 18.0167ZM26.9638 25.355C26.6944 25.7015 26.7086 26.1971 26.9827 26.5291C29.0906 29.0843 29.8941 31.6154 29.3884 34.0551C29.2182 34.8636 28.9205 35.5902 28.5755 36.2206C28.0886 37.1108 27.6869 37.0001 27.6869 35.9848V34.06C27.6869 33.9493 27.6255 33.7905 27.5451 33.7183C26.7889 33.0398 25.9287 33.5643 25.9287 34.3006C25.9287 38.9153 24.1658 42.6302 20.7014 45.3345C18.8723 46.7589 17.0196 47.5336 15.9467 47.9042C15.5544 48.0389 14.9116 48.0389 14.5194 47.9042C13.4465 47.5336 11.5938 46.7637 9.76466 45.3345C6.30026 42.6302 4.54679 38.9153 4.54679 34.3006C4.54679 33.5451 3.61571 33.0158 2.90203 33.7761C2.83586 33.8482 2.7886 33.9974 2.7886 34.0936V35.9992C2.7886 37.0194 2.39159 37.1252 1.90005 36.235C1.54558 35.595 1.24309 34.8491 1.07294 34.0263C0.581404 31.5577 1.41796 29.0025 3.5779 26.4233C3.60626 26.3944 3.62516 26.3607 3.64407 26.3318C3.89456 25.9469 3.81421 25.4224 3.46447 25.1336C3.3085 25.0037 3.10999 24.9364 2.90676 24.9364C2.76497 24.9364 2.61845 24.97 2.48139 25.047L0.893342 25.9276C0.0142441 26.4136 -0.255157 26.1153 0.26474 25.2491C0.860257 24.2675 1.68264 23.1848 2.82168 22.1502C2.82641 22.1406 2.84059 22.1261 2.84532 22.1213C4.03635 21.053 5.43062 20.1484 6.99503 19.4458H7.00921C7.00921 19.4458 7.01867 19.4555 7.02339 19.4603C7.0612 19.4939 7.69453 19.9751 8.81467 20.4948C9.16915 20.6585 9.22114 21.0242 8.9281 21.284C7.96393 22.1502 7.35896 23.4398 6.50822 25.2491C6.34753 25.6004 6.17738 25.9661 5.98833 26.3655C4.60824 29.2383 6.77762 30.8936 8.3704 32.0918C8.54054 32.2218 8.71542 32.3565 8.88557 32.4864C9.20223 32.7415 9.25895 32.9532 9.26367 33.0927C9.29676 33.6221 8.75796 34.2909 8.57363 34.4834C8.4791 34.5749 8.40348 34.6903 8.35622 34.8154C7.41095 37.4332 8.92338 39.0933 10.0152 39.7141C10.0152 39.743 10.0152 39.7767 10.0199 39.8103C10.1428 40.8979 11.6457 42.8564 14.7037 42.8515H14.94C15.1905 42.8323 15.4788 42.8371 15.7293 42.8515C18.6454 42.9622 20.1815 41.2155 20.3422 39.9258C20.4367 39.8777 20.5218 39.8248 20.6021 39.7622C21.6987 39.1848 23.3198 37.5006 22.3462 34.8154C22.2989 34.6903 22.2233 34.5797 22.1382 34.4834C21.9491 34.2909 21.4056 33.6221 21.4387 33.0927C21.4482 32.9532 21.5001 32.7415 21.8215 32.4864C21.987 32.3565 22.1666 32.2218 22.332 32.0918C23.9248 30.8888 26.0989 29.2383 24.7235 26.3655C24.525 25.9661 24.3596 25.5956 24.1942 25.2491C23.3103 23.3773 22.7006 22.0732 21.7034 21.2167C21.3773 20.9376 21.434 20.5767 21.8263 20.4082C22.3083 20.2061 22.7904 19.9848 23.2725 19.7442C23.3954 19.6816 23.4994 19.5998 23.5797 19.4939C27.0394 21.0771 29.0481 23.3628 30.1966 25.2443C30.7212 26.1057 30.4376 26.404 29.568 25.9228L28.1123 25.1144C27.72 24.9075 27.2379 25.0133 26.9685 25.3694L26.9638 25.355ZM2.29234 5.56312C2.79805 2.33425 5.81345 -0.586654 10.5965 0.101467C14.231 0.625978 16.892 2.34868 18.4942 5.22147C19.6805 7.34838 19.8365 9.355 19.8365 9.38387C19.8696 9.87951 20.2902 10.25 20.7723 10.2164C21.2591 10.1875 21.623 9.76402 21.5899 9.26838C21.5899 9.1962 21.5096 8.03169 20.9755 6.46778C23.2489 7.04523 25.1961 6.48703 25.3048 6.45335C25.3616 6.43891 25.4088 6.41966 25.4608 6.39079C27.2899 5.44282 28.722 5.20703 29.6105 5.71711C30.7118 6.35229 30.9433 8.1135 30.9906 8.84492C31.019 9.22507 30.9764 9.5956 30.8677 9.94207C30.3667 11.5012 29.5065 12.5935 28.3297 13.1854C27.3844 13.6618 26.3399 13.7724 25.4419 13.7388C25.5979 13.5944 25.7586 13.45 25.9193 13.2816C26.2643 12.94 26.2737 12.3673 25.9287 12.0161C25.5884 11.6648 25.0354 11.6552 24.681 12.0016C22.6912 13.9938 22.0484 13.5848 18.4895 11.3327C17.7522 10.8708 16.9203 10.3415 15.9514 9.76402C14.2878 8.76793 12.7092 8.41184 11.2629 8.69575C11.1589 8.52733 11.0455 8.23861 10.9415 7.88733C10.8092 7.45425 10.6863 6.92492 10.6107 6.41966C10.5351 5.92883 10.0908 5.59199 9.6087 5.66417C9.12661 5.73635 8.79577 6.1935 8.87139 6.67951C9.05572 7.90658 9.31094 8.74868 9.60397 9.32613C9.23059 9.54748 8.89975 9.80252 8.60199 10.0816C8.23333 9.79771 7.91667 9.22507 7.652 8.54177C7.30697 7.64673 7.07066 6.57365 6.9714 5.72192C6.91469 5.2359 6.47514 4.88462 5.99305 4.93756C5.51569 4.9953 5.17067 5.44282 5.22266 5.92883C5.31246 6.69395 5.77092 10.0239 7.44876 11.4482C7.30697 11.6552 7.19354 11.8573 7.09901 12.0353C2.97765 11.044 1.91896 7.97876 2.29234 5.56312Z" fill="#D6D9C1"/>
</svg>
