<svg width="45" height="36" viewBox="0 0 45 36" fill="none" xmlns="http://www.w3.org/2000/svg">
  <path d="M12.1 27.1254V10.7754H42.5729L34.3979 27.1254H12.1Z" fill="#36593C" stroke="white" stroke-width="3" />
  <path d="M12.2125 1.75V9.275" stroke="white" stroke-width="3" stroke-linecap="round" />
  <path d="M2 1.75L11.675 1.75" stroke="white" stroke-width="3" stroke-linecap="round" />
  <path d="M12.2125 3.90039V11.4254" stroke="white" stroke-width="3" stroke-linecap="round" />
  <circle cx="12.75" cy="32.9254" r="2.15" fill="white" />
  <circle cx="12.75" cy="32.9254" r="2.15" stroke="white" />
  <circle cx="33.175" cy="32.9254" r="2.15" fill="white" />
  <circle cx="33.175" cy="32.9254" r="2.15" stroke="white" />
  <path
    d="M24.9223 15.2358C24.9821 15.0515 25.2428 15.0515 25.3027 15.2358L25.9123 17.112C25.9391 17.1944 26.0159 17.2502 26.1025 17.2502H28.0753C28.269 17.2502 28.3496 17.4981 28.1928 17.612L26.5968 18.7716C26.5267 18.8225 26.4974 18.9128 26.5242 18.9952L27.1338 20.8714C27.1937 21.0557 26.9828 21.2089 26.826 21.095L25.23 19.9354C25.1599 19.8845 25.065 19.8845 24.9949 19.9354L23.3989 21.095C23.2422 21.2089 23.0313 21.0557 23.0911 20.8714L23.7008 18.9952C23.7275 18.9128 23.6982 18.8225 23.6281 18.7716L22.0321 17.612C21.8754 17.4981 21.9559 17.2502 22.1497 17.2502H24.1224C24.2091 17.2502 24.2859 17.1944 24.3126 17.112L24.9223 15.2358Z"
    fill="white" />
</svg>