<svg width="10" height="10" viewBox="0 0 10 10" fill="none" xmlns="http://www.w3.org/2000/svg">
<g clip-path="url(#clip0_666_426)">
<path d="M9.92212 4.13581C9.69921 2.90083 9.09902 1.8851 8.12569 1.09522C7.3574 0.471732 6.47386 0.104199 5.49001 0.0214913C3.78852 -0.121411 2.35544 0.448486 1.21891 1.72678C0.56146 2.46625 0.168751 3.33933 0.0459229 4.31983C-0.149086 5.87536 0.279835 7.24615 1.34149 8.4038C2.077 9.20592 2.99111 9.70216 4.05962 9.90869C4.24118 9.94368 4.42689 9.95812 4.6104 9.98258C4.6422 9.98699 4.67377 9.99409 4.70557 9.99996H5.29158C5.47802 9.97476 5.6652 9.95518 5.85042 9.92361C6.81862 9.75795 7.66569 9.34173 8.38554 8.67468C9.26246 7.86229 9.7802 6.8583 9.9527 5.67593C9.97154 5.54771 9.98451 5.41876 10.0002 5.29029V4.704C9.97448 4.5146 9.95613 4.32374 9.92212 4.13581ZM7.53968 6.99289C7.35569 7.17665 7.1805 7.37045 6.9368 7.48179C6.74399 7.56988 6.54262 7.6105 6.33464 7.61074C5.98402 7.58823 5.66349 7.46637 5.35715 7.31686C4.18857 6.74672 3.30063 5.88099 2.69261 4.73214C2.54849 4.45979 2.41979 4.17692 2.37844 3.86567C2.31947 3.42179 2.4653 3.04667 2.77335 2.7293C2.85728 2.64292 2.94242 2.55777 3.0288 2.47384C3.15334 2.35296 3.2632 2.35173 3.38505 2.47261C3.68062 2.76625 3.97546 3.06062 4.26882 3.3567C4.387 3.47587 4.38676 3.58672 4.2698 3.70588C4.10783 3.87081 3.94291 4.0328 3.77996 4.19674C3.57174 4.40645 3.55657 4.62496 3.73151 4.86011C4.1433 5.41239 4.62972 5.88857 5.19028 6.28938C5.40756 6.44452 5.63486 6.42739 5.82449 6.238C5.98353 6.07919 6.13939 5.91769 6.29794 5.75864C6.42664 5.62944 6.53797 5.62968 6.66814 5.75937C6.95857 6.04909 7.24852 6.3393 7.53724 6.63049C7.66422 6.75847 7.6652 6.86785 7.53968 6.99289Z" fill="#36593C"/>
</g>
<defs>
<clipPath id="clip0_666_426">
<rect width="10" height="10" fill="white"/>
</clipPath>
</defs>
</svg>
