<svg width="6" height="6" viewBox="0 0 6 6" fill="none" xmlns="http://www.w3.org/2000/svg">
<path d="M4.39356 3.06608L5.97237 4.6449C6.00921 4.68173 6.00921 4.74096 5.97237 4.77707L4.77707 5.97237C4.74023 6.00921 4.68101 6.00921 4.6449 5.97237L3.06608 4.39356C3.02925 4.35673 2.97003 4.35673 2.93391 4.39356L1.3551 5.97237C1.31827 6.00921 1.25904 6.00921 1.22293 5.97237L0.0276256 4.77707C-0.00920855 4.74023 -0.00920855 4.68101 0.0276256 4.6449L1.60644 3.06608C1.64327 3.02925 1.64327 2.97003 1.60644 2.93391L0.0276256 1.3551C-0.00920855 1.31827 -0.00920855 1.25904 0.0276256 1.22293L1.22293 0.0276256C1.25977 -0.00920855 1.31899 -0.00920855 1.3551 0.0276256L2.93391 1.60644C2.97075 1.64327 3.02997 1.64327 3.06608 1.60644L4.6449 0.0276256C4.68173 -0.00920855 4.74096 -0.00920855 4.77707 0.0276256L5.97237 1.22293C6.00921 1.25977 6.00921 1.31899 5.97237 1.3551L4.39356 2.93391C4.35673 2.97075 4.35673 3.02997 4.39356 3.06608Z" fill="#36593C" fill-opacity="0.7"/>
</svg>
