<svg width="6" height="10" viewBox="0 0 6 10" fill="none" xmlns="http://www.w3.org/2000/svg">
<path d="M3.23742 0C3.38736 0.0263536 3.53834 0.0469667 3.68672 0.0798435C4.88025 0.345206 5.82658 1.39439 5.97391 2.59752C6.07926 3.45832 5.86204 4.23692 5.39318 4.95082C5.12381 5.36099 4.83201 5.75682 4.55299 6.16073C4.10708 6.80652 3.77069 7.50085 3.6184 8.27684C3.54147 8.66771 3.5047 9.06197 3.5047 9.45988C3.5047 9.65532 3.43664 9.81605 3.26636 9.92329C2.96387 10.1138 2.55786 9.93086 2.51405 9.57626C2.48901 9.37352 2.49397 9.16712 2.48041 8.96282C2.416 7.9987 2.0963 7.12224 1.56016 6.32381C1.28453 5.91337 0.991425 5.5152 0.712925 5.10685C0.408348 4.6604 0.17444 4.18239 0.064396 3.64671C-0.27069 2.01331 0.732743 0.444618 2.35785 0.0720157C2.49318 0.0409654 2.63165 0.0237443 2.76882 0C2.92502 0 3.08122 0 3.23715 0H3.23742ZM4.00068 3.00404C4.00251 2.45114 3.56077 2.00418 3.00716 1.99974C2.45929 1.99504 2.00738 2.44488 2.00555 2.99622C2.00399 3.54834 2.44833 3.99817 2.99907 4.00131C3.54799 4.00444 3.9986 3.5559 4.00042 3.00431L4.00068 3.00404Z" fill="#36593C"/>
</svg>
